<mxfile host="Electron" modified="2023-08-28T00:46:34.173Z" agent="Mozilla/5.0 (Windows NT 10.0; Win64; x64) AppleWebKit/537.36 (KHTML, like Gecko) draw.io/21.6.8 Chrome/114.0.5735.289 Electron/25.5.0 Safari/537.36" etag="exzfPwIPTvD2aHNPAY2G" version="21.6.8" type="device">
  <diagram name="Seite-1" id="TLxxJk9ZrcsyJ-iHHhEI">
    <mxGraphModel dx="420" dy="1196" grid="1" gridSize="10" guides="1" tooltips="1" connect="1" arrows="1" fold="1" page="1" pageScale="1" pageWidth="827" pageHeight="1169" math="0" shadow="0">
      <root>
        <mxCell id="0" />
        <mxCell id="1" parent="0" />
        <mxCell id="Zae1HkYMFBFqGgwTaQy0-2" value="" style="group" parent="1" vertex="1" connectable="0">
          <mxGeometry x="3360" y="25" width="1540" height="1120" as="geometry" />
        </mxCell>
        <mxCell id="GjK2tW5QWSfA9PtQNP4F-1" value="" style="strokeWidth=1;shadow=0;dashed=0;align=center;html=1;shape=mxgraph.mockup.containers.browserWindow;rSize=0;strokeColor=#666666;strokeColor2=#008cff;strokeColor3=#c4c4c4;mainText=,;recursiveResize=0;" parent="Zae1HkYMFBFqGgwTaQy0-2" vertex="1">
          <mxGeometry width="1540" height="1090" as="geometry" />
        </mxCell>
        <mxCell id="GjK2tW5QWSfA9PtQNP4F-2" value="ToolBox" style="strokeWidth=1;shadow=0;dashed=0;align=center;html=1;shape=mxgraph.mockup.containers.anchor;fontSize=17;fontColor=#666666;align=left;whiteSpace=wrap;" parent="GjK2tW5QWSfA9PtQNP4F-1" vertex="1">
          <mxGeometry x="60" y="10.926829268292684" width="110" height="23.674796747967484" as="geometry" />
        </mxCell>
        <mxCell id="GjK2tW5QWSfA9PtQNP4F-3" value="Link-Manager" style="strokeWidth=1;shadow=0;dashed=0;align=center;html=1;shape=mxgraph.mockup.containers.anchor;rSize=0;fontSize=17;fontColor=#666666;align=left;" parent="GjK2tW5QWSfA9PtQNP4F-1" vertex="1">
          <mxGeometry x="130" y="63.634146341463435" width="250" height="23.674796747967484" as="geometry" />
        </mxCell>
        <mxCell id="GjK2tW5QWSfA9PtQNP4F-4" value="" style="rounded=0;whiteSpace=wrap;html=1;fillColor=#f5f5f5;fontColor=#333333;strokeColor=#666666;" parent="GjK2tW5QWSfA9PtQNP4F-1" vertex="1">
          <mxGeometry y="109.27260162601627" width="1540" height="63.739837398374" as="geometry" />
        </mxCell>
        <mxCell id="gnaFbATsd3aCGoyUF69e-38" value="" style="rounded=1;whiteSpace=wrap;html=1;" parent="GjK2tW5QWSfA9PtQNP4F-1" vertex="1">
          <mxGeometry x="10" y="185" width="1520" height="65" as="geometry" />
        </mxCell>
        <mxCell id="kFQyDGESl5IkF7yVYetH-1" value="MODULES" style="rounded=1;whiteSpace=wrap;html=1;shadow=1;" parent="GjK2tW5QWSfA9PtQNP4F-1" vertex="1">
          <mxGeometry x="285" y="118.37829268292687" width="120" height="45.528455284552855" as="geometry" />
        </mxCell>
        <mxCell id="jNiDypkcRu_44RYymm86-1" value="" style="html=1;shape=mxgraph.basic.isocube;isoAngle=15;" parent="GjK2tW5QWSfA9PtQNP4F-1" vertex="1">
          <mxGeometry x="15" y="127.11000000000001" width="28.06" height="28.06" as="geometry" />
        </mxCell>
        <mxCell id="Zae1HkYMFBFqGgwTaQy0-3" value="" style="html=1;verticalLabelPosition=bottom;align=center;labelBackgroundColor=#ffffff;verticalAlign=top;strokeWidth=2;strokeColor=#000000;shadow=0;dashed=0;shape=mxgraph.ios7.icons.settings;" parent="Zae1HkYMFBFqGgwTaQy0-2" vertex="1">
          <mxGeometry x="1491" y="126.14" width="30" height="30" as="geometry" />
        </mxCell>
        <mxCell id="GjK2tW5QWSfA9PtQNP4F-5" value="&lt;span style=&quot;font-size: 18px;&quot;&gt;&lt;b&gt;&lt;i&gt;&lt;u&gt;ToolBox&lt;/u&gt;&lt;/i&gt;&lt;/b&gt;&lt;/span&gt;" style="text;html=1;strokeColor=none;fillColor=none;align=center;verticalAlign=middle;whiteSpace=wrap;rounded=0;glass=0;" parent="Zae1HkYMFBFqGgwTaQy0-2" vertex="1">
          <mxGeometry x="47" y="118.38" width="92" height="45.53" as="geometry" />
        </mxCell>
        <mxCell id="GjK2tW5QWSfA9PtQNP4F-6" value="OVERVIEW" style="rounded=1;whiteSpace=wrap;html=1;shadow=1;" parent="Zae1HkYMFBFqGgwTaQy0-2" vertex="1">
          <mxGeometry x="155" y="118.37829268292685" width="120" height="45.528455284552855" as="geometry" />
        </mxCell>
        <mxCell id="GjK2tW5QWSfA9PtQNP4F-9" value="ABOUT" style="rounded=1;whiteSpace=wrap;html=1;shadow=1;glass=0;" parent="Zae1HkYMFBFqGgwTaQy0-2" vertex="1">
          <mxGeometry x="415" y="118.37829268292685" width="120" height="45.528455284552855" as="geometry" />
        </mxCell>
        <mxCell id="gnaFbATsd3aCGoyUF69e-41" value="" style="html=1;verticalLabelPosition=bottom;align=center;labelBackgroundColor=#ffffff;verticalAlign=top;strokeWidth=2;strokeColor=#0080F0;shadow=0;dashed=0;shape=mxgraph.ios7.icons.add;" parent="Zae1HkYMFBFqGgwTaQy0-2" vertex="1">
          <mxGeometry x="747.5" y="195" width="45" height="45" as="geometry" />
        </mxCell>
        <mxCell id="A8pxOkjHWkT-Q6A-T4UV-10" value="" style="shape=step;whiteSpace=wrap;html=1;rounded=0;strokeColor=none;strokeWidth=2;fillColor=#0A1E43;gradientColor=none;fontFamily=Verdana;fontSize=14;fontColor=#000000;align=left;direction=south;size=0.65;" parent="Zae1HkYMFBFqGgwTaQy0-2" vertex="1">
          <mxGeometry x="385" y="137.64" width="10" height="7" as="geometry" />
        </mxCell>
        <mxCell id="gnaFbATsd3aCGoyUF69e-37" style="edgeStyle=orthogonalEdgeStyle;rounded=0;orthogonalLoop=1;jettySize=auto;html=1;" parent="1" source="Zae1HkYMFBFqGgwTaQy0-5" target="gnaFbATsd3aCGoyUF69e-1" edge="1">
          <mxGeometry relative="1" as="geometry" />
        </mxCell>
        <mxCell id="Zae1HkYMFBFqGgwTaQy0-5" value="" style="html=1;rounded=1;fillColor=#ffffff;strokeColor=#DFE1E5;fontSize=20;align=left;fontColor=#000000;shadow=1;arcSize=1;whiteSpace=wrap;spacing=20;verticalAlign=top;fontStyle=1;hachureGap=4;pointerEvents=0;fontFamily=Helvetica;sketch=1;curveFitting=1;jiggle=2;" parent="1" vertex="1">
          <mxGeometry x="5010" y="70" width="616" height="420" as="geometry" />
        </mxCell>
        <mxCell id="Zae1HkYMFBFqGgwTaQy0-6" value="&lt;font style=&quot;font-size: 17px&quot;&gt;Settings&lt;/font&gt;&lt;div&gt;&lt;br&gt;&lt;/div&gt;&lt;div&gt;&lt;/div&gt;&lt;div&gt;Appearance&lt;/div&gt;&lt;br&gt;&lt;div&gt;&lt;font color=&quot;#0057d8&quot;&gt;&lt;/font&gt;&lt;/div&gt;&lt;div&gt;&lt;font color=&quot;#0057d8&quot;&gt;Encryption&lt;/font&gt;&lt;/div&gt;" style="html=1;fillColor=none;strokeColor=none;fontSize=12;align=left;fontStyle=1;strokeWidth=2;fontColor=000000;verticalAlign=top;sketch=1;hachureGap=4;pointerEvents=0;fontFamily=Architects Daughter;fontSource=https%3A%2F%2Ffonts.googleapis.com%2Fcss%3Ffamily%3DArchitects%2BDaughter;" parent="Zae1HkYMFBFqGgwTaQy0-5" vertex="1">
          <mxGeometry width="110" height="360" relative="1" as="geometry">
            <mxPoint x="20" y="20" as="offset" />
          </mxGeometry>
        </mxCell>
        <mxCell id="Zae1HkYMFBFqGgwTaQy0-7" value="" style="shape=line;direction=south;strokeColor=#E0E1E6;strokeWidth=1;hachureGap=4;pointerEvents=0;fontFamily=Architects Daughter;fontSource=https%3A%2F%2Ffonts.googleapis.com%2Fcss%3Ffamily%3DArchitects%2BDaughter;fontSize=20;sketch=1;curveFitting=1;jiggle=2;" parent="Zae1HkYMFBFqGgwTaQy0-5" vertex="1">
          <mxGeometry width="10" height="330" relative="1" as="geometry">
            <mxPoint x="130" y="60" as="offset" />
          </mxGeometry>
        </mxCell>
        <mxCell id="Zae1HkYMFBFqGgwTaQy0-22" value="Appearance" style="text;html=1;strokeColor=none;fillColor=none;align=center;verticalAlign=middle;whiteSpace=wrap;rounded=0;strokeWidth=2;sketch=1;curveFitting=1;jiggle=2;" parent="Zae1HkYMFBFqGgwTaQy0-5" vertex="1">
          <mxGeometry x="140" y="50" width="80" height="30" as="geometry" />
        </mxCell>
        <mxCell id="Zae1HkYMFBFqGgwTaQy0-23" value="&lt;font style=&quot;font-size: 10px;&quot;&gt;Theme:&lt;/font&gt;" style="text;html=1;strokeColor=none;fillColor=none;align=center;verticalAlign=middle;whiteSpace=wrap;rounded=0;strokeWidth=2;sketch=1;curveFitting=1;jiggle=2;" parent="Zae1HkYMFBFqGgwTaQy0-5" vertex="1">
          <mxGeometry x="160" y="69" width="60" height="31" as="geometry" />
        </mxCell>
        <mxCell id="Zae1HkYMFBFqGgwTaQy0-41" value="&lt;font style=&quot;font-size: 10px;&quot;&gt;Light&lt;/font&gt;" style="rounded=1;whiteSpace=wrap;html=1;align=left;" parent="Zae1HkYMFBFqGgwTaQy0-5" vertex="1">
          <mxGeometry x="215" y="77.25" width="40" height="14.5" as="geometry" />
        </mxCell>
        <mxCell id="Zae1HkYMFBFqGgwTaQy0-45" value="" style="shape=triangle;direction=north;fillColor=#000000;strokeColor=none;perimeter=none;gradientColor=none;fillStyle=solid;rotation=-180;" parent="Zae1HkYMFBFqGgwTaQy0-5" vertex="1">
          <mxGeometry x="243" y="82.25" width="9" height="4.5" as="geometry" />
        </mxCell>
        <mxCell id="gnaFbATsd3aCGoyUF69e-18" value="Apply Changes" style="rounded=1;fillColor=#0057D8;strokeColor=none;html=1;whiteSpace=wrap;fontColor=#ffffff;align=center;verticalAlign=middle;fontStyle=0;fontSize=12;sketch=0;" parent="Zae1HkYMFBFqGgwTaQy0-5" vertex="1">
          <mxGeometry x="510" y="380" width="96" height="33" as="geometry" />
        </mxCell>
        <mxCell id="gnaFbATsd3aCGoyUF69e-19" value="Cancel" style="rounded=1;fillColor=#F1F2F4;strokeColor=none;html=1;whiteSpace=wrap;fontColor=#596780;align=center;verticalAlign=middle;fontStyle=0;fontSize=12;sketch=0;" parent="Zae1HkYMFBFqGgwTaQy0-5" vertex="1">
          <mxGeometry x="435" y="380" width="66" height="33" as="geometry" />
        </mxCell>
        <mxCell id="Zae1HkYMFBFqGgwTaQy0-21" style="edgeStyle=orthogonalEdgeStyle;rounded=0;orthogonalLoop=1;jettySize=auto;html=1;entryX=0.004;entryY=0.133;entryDx=0;entryDy=0;entryPerimeter=0;" parent="1" source="Zae1HkYMFBFqGgwTaQy0-3" target="Zae1HkYMFBFqGgwTaQy0-5" edge="1">
          <mxGeometry relative="1" as="geometry" />
        </mxCell>
        <mxCell id="gnaFbATsd3aCGoyUF69e-1" value="" style="html=1;rounded=1;fillColor=#ffffff;strokeColor=#DFE1E5;fontSize=20;align=left;fontColor=#000000;shadow=1;arcSize=1;whiteSpace=wrap;spacing=20;verticalAlign=top;fontStyle=1;hachureGap=4;pointerEvents=0;fontFamily=Helvetica;sketch=1;curveFitting=1;jiggle=2;" parent="1" vertex="1">
          <mxGeometry x="5006" y="550" width="624" height="420" as="geometry" />
        </mxCell>
        <mxCell id="gnaFbATsd3aCGoyUF69e-2" value="&lt;font style=&quot;font-size: 17px&quot;&gt;Settings&lt;/font&gt;&lt;div&gt;&lt;br&gt;&lt;/div&gt;&lt;div&gt;&lt;/div&gt;&lt;div&gt;&lt;font color=&quot;#0057d8&quot;&gt;Appearance&lt;/font&gt;&lt;/div&gt;&lt;br&gt;&lt;div&gt;&lt;font color=&quot;#0057d8&quot;&gt;&lt;/font&gt;&lt;/div&gt;&lt;div&gt;Encryption&lt;/div&gt;" style="html=1;fillColor=none;strokeColor=none;fontSize=12;align=left;fontStyle=1;strokeWidth=2;fontColor=000000;verticalAlign=top;sketch=1;hachureGap=4;pointerEvents=0;fontFamily=Architects Daughter;fontSource=https%3A%2F%2Ffonts.googleapis.com%2Fcss%3Ffamily%3DArchitects%2BDaughter;" parent="gnaFbATsd3aCGoyUF69e-1" vertex="1">
          <mxGeometry width="110" height="360" relative="1" as="geometry">
            <mxPoint x="20" y="20" as="offset" />
          </mxGeometry>
        </mxCell>
        <mxCell id="gnaFbATsd3aCGoyUF69e-3" value="" style="shape=line;direction=south;strokeColor=#E0E1E6;strokeWidth=1;hachureGap=4;pointerEvents=0;fontFamily=Architects Daughter;fontSource=https%3A%2F%2Ffonts.googleapis.com%2Fcss%3Ffamily%3DArchitects%2BDaughter;fontSize=20;sketch=1;curveFitting=1;jiggle=2;" parent="gnaFbATsd3aCGoyUF69e-1" vertex="1">
          <mxGeometry width="10" height="330" relative="1" as="geometry">
            <mxPoint x="130" y="60" as="offset" />
          </mxGeometry>
        </mxCell>
        <mxCell id="gnaFbATsd3aCGoyUF69e-4" value="Encryption" style="text;html=1;strokeColor=none;fillColor=none;align=center;verticalAlign=middle;whiteSpace=wrap;rounded=0;strokeWidth=2;sketch=1;curveFitting=1;jiggle=2;" parent="gnaFbATsd3aCGoyUF69e-1" vertex="1">
          <mxGeometry x="140" y="50" width="80" height="30" as="geometry" />
        </mxCell>
        <mxCell id="gnaFbATsd3aCGoyUF69e-11" value="&lt;font style=&quot;font-size: 10px;&quot;&gt;Encryption Key (256bit):&lt;/font&gt;" style="text;html=1;strokeColor=none;fillColor=none;align=center;verticalAlign=middle;whiteSpace=wrap;rounded=0;" parent="gnaFbATsd3aCGoyUF69e-1" vertex="1">
          <mxGeometry x="160" y="70" width="120" height="30" as="geometry" />
        </mxCell>
        <mxCell id="gnaFbATsd3aCGoyUF69e-12" value="" style="rounded=0;whiteSpace=wrap;html=1;" parent="gnaFbATsd3aCGoyUF69e-1" vertex="1">
          <mxGeometry x="280" y="77.5" width="140" height="15" as="geometry" />
        </mxCell>
        <mxCell id="gnaFbATsd3aCGoyUF69e-22" value="Apply Changes" style="rounded=1;fillColor=#0057D8;strokeColor=none;html=1;whiteSpace=wrap;fontColor=#ffffff;align=center;verticalAlign=middle;fontStyle=0;fontSize=12;sketch=0;" parent="gnaFbATsd3aCGoyUF69e-1" vertex="1">
          <mxGeometry x="511" y="377" width="96" height="33" as="geometry" />
        </mxCell>
        <mxCell id="gnaFbATsd3aCGoyUF69e-23" value="Cancel" style="rounded=1;fillColor=#F1F2F4;strokeColor=none;html=1;whiteSpace=wrap;fontColor=#596780;align=center;verticalAlign=middle;fontStyle=0;fontSize=12;sketch=0;" parent="gnaFbATsd3aCGoyUF69e-1" vertex="1">
          <mxGeometry x="436" y="377" width="66" height="33" as="geometry" />
        </mxCell>
        <mxCell id="gnaFbATsd3aCGoyUF69e-24" value="Generate Key" style="rounded=1;fillColor=#F1F2F4;strokeColor=none;html=1;whiteSpace=wrap;fontColor=#596780;align=center;verticalAlign=middle;fontStyle=0;fontSize=12;sketch=0;" parent="gnaFbATsd3aCGoyUF69e-1" vertex="1">
          <mxGeometry x="430" y="74.25" width="94" height="21.5" as="geometry" />
        </mxCell>
        <mxCell id="gnaFbATsd3aCGoyUF69e-36" value="Clear" style="rounded=1;fillColor=#F1F2F4;strokeColor=none;html=1;whiteSpace=wrap;fontColor=#596780;align=center;verticalAlign=middle;fontStyle=0;fontSize=12;sketch=0;" parent="gnaFbATsd3aCGoyUF69e-1" vertex="1">
          <mxGeometry x="532" y="74.25" width="50" height="21.5" as="geometry" />
        </mxCell>
        <mxCell id="gnaFbATsd3aCGoyUF69e-54" value="" style="group" parent="1" vertex="1" connectable="0">
          <mxGeometry x="3370" y="286" width="1520" height="104" as="geometry" />
        </mxCell>
        <mxCell id="gnaFbATsd3aCGoyUF69e-40" value="" style="rounded=1;whiteSpace=wrap;html=1;" parent="gnaFbATsd3aCGoyUF69e-54" vertex="1">
          <mxGeometry width="1520" height="104" as="geometry" />
        </mxCell>
        <mxCell id="gnaFbATsd3aCGoyUF69e-43" value="" style="html=1;dashed=0;aspect=fixed;verticalLabelPosition=bottom;verticalAlign=top;align=center;shape=mxgraph.gmdl.edit;strokeColor=none;fillColor=#000000;shadow=0;sketch=0;" parent="gnaFbATsd3aCGoyUF69e-54" vertex="1">
          <mxGeometry x="1294" y="32" width="40" height="40" as="geometry" />
        </mxCell>
        <mxCell id="gnaFbATsd3aCGoyUF69e-45" value="" style="html=1;verticalLabelPosition=bottom;align=center;labelBackgroundColor=#ffffff;verticalAlign=top;strokeWidth=2;strokeColor=#000000;shadow=0;dashed=0;shape=mxgraph.ios7.icons.trashcan;" parent="gnaFbATsd3aCGoyUF69e-54" vertex="1">
          <mxGeometry x="1460" y="30.5" width="40" height="43" as="geometry" />
        </mxCell>
        <mxCell id="gnaFbATsd3aCGoyUF69e-48" value="" style="shadow=0;dashed=0;html=1;strokeColor=none;fillColor=#000000;labelPosition=center;verticalLabelPosition=bottom;verticalAlign=top;align=center;outlineConnect=0;shape=mxgraph.veeam.encryption_key;" parent="gnaFbATsd3aCGoyUF69e-54" vertex="1">
          <mxGeometry x="1350" y="26.600000000000023" width="36.8" height="50.8" as="geometry" />
        </mxCell>
        <mxCell id="gnaFbATsd3aCGoyUF69e-49" value="" style="sketch=0;outlineConnect=0;fontColor=#232F3E;gradientColor=none;fillColor=#000000;strokeColor=none;dashed=0;verticalLabelPosition=bottom;verticalAlign=top;align=center;html=1;fontSize=12;fontStyle=0;aspect=fixed;pointerEvents=1;shape=mxgraph.aws4.download_distribution;" parent="gnaFbATsd3aCGoyUF69e-54" vertex="1">
          <mxGeometry x="1398" y="27.5" width="46" height="46" as="geometry" />
        </mxCell>
        <mxCell id="gnaFbATsd3aCGoyUF69e-50" value="&lt;font style=&quot;font-size: 28px;&quot;&gt;&lt;b&gt;&lt;u&gt;Titel der Liste 1&lt;/u&gt;&lt;/b&gt;&lt;/font&gt;" style="text;html=1;strokeColor=none;fillColor=none;align=center;verticalAlign=middle;whiteSpace=wrap;rounded=0;" parent="gnaFbATsd3aCGoyUF69e-54" vertex="1">
          <mxGeometry x="30" y="17.5" width="251" height="69" as="geometry" />
        </mxCell>
        <mxCell id="gnaFbATsd3aCGoyUF69e-51" value="" style="html=1;verticalLabelPosition=bottom;align=center;labelBackgroundColor=#ffffff;verticalAlign=top;strokeWidth=2;strokeColor=#000000;shadow=0;dashed=0;shape=mxgraph.ios7.icons.eye;" parent="gnaFbATsd3aCGoyUF69e-54" vertex="1">
          <mxGeometry x="1215" y="35.44999999999999" width="70.43" height="33.1" as="geometry" />
        </mxCell>
        <mxCell id="Q-NLPF5a2ukc4XWT1Jhk-28" value="" style="group" parent="1" vertex="1" connectable="0">
          <mxGeometry x="1750" y="20" width="1540" height="1120" as="geometry" />
        </mxCell>
        <mxCell id="Q-NLPF5a2ukc4XWT1Jhk-29" value="" style="strokeWidth=1;shadow=0;dashed=0;align=center;html=1;shape=mxgraph.mockup.containers.browserWindow;rSize=0;strokeColor=#666666;strokeColor2=#008cff;strokeColor3=#c4c4c4;mainText=,;recursiveResize=0;" parent="Q-NLPF5a2ukc4XWT1Jhk-28" vertex="1">
          <mxGeometry width="1540" height="1090" as="geometry" />
        </mxCell>
        <mxCell id="Q-NLPF5a2ukc4XWT1Jhk-30" value="ToolBox" style="strokeWidth=1;shadow=0;dashed=0;align=center;html=1;shape=mxgraph.mockup.containers.anchor;fontSize=17;fontColor=#666666;align=left;whiteSpace=wrap;" parent="Q-NLPF5a2ukc4XWT1Jhk-29" vertex="1">
          <mxGeometry x="60" y="10.926829268292684" width="110" height="23.674796747967484" as="geometry" />
        </mxCell>
        <mxCell id="Q-NLPF5a2ukc4XWT1Jhk-31" value="Overview" style="strokeWidth=1;shadow=0;dashed=0;align=center;html=1;shape=mxgraph.mockup.containers.anchor;rSize=0;fontSize=17;fontColor=#666666;align=left;" parent="Q-NLPF5a2ukc4XWT1Jhk-29" vertex="1">
          <mxGeometry x="130" y="63.634146341463435" width="250" height="23.674796747967484" as="geometry" />
        </mxCell>
        <mxCell id="Q-NLPF5a2ukc4XWT1Jhk-32" value="" style="rounded=0;whiteSpace=wrap;html=1;fillColor=#f5f5f5;fontColor=#333333;strokeColor=#666666;" parent="Q-NLPF5a2ukc4XWT1Jhk-29" vertex="1">
          <mxGeometry y="109.27260162601627" width="1540" height="63.739837398374" as="geometry" />
        </mxCell>
        <mxCell id="Q-NLPF5a2ukc4XWT1Jhk-42" value="MODULES" style="rounded=1;whiteSpace=wrap;html=1;shadow=1;" parent="Q-NLPF5a2ukc4XWT1Jhk-29" vertex="1">
          <mxGeometry x="285" y="118.37829268292687" width="120" height="45.528455284552855" as="geometry" />
        </mxCell>
        <mxCell id="Q-NLPF5a2ukc4XWT1Jhk-43" value="" style="html=1;shape=mxgraph.basic.isocube;isoAngle=15;" parent="Q-NLPF5a2ukc4XWT1Jhk-29" vertex="1">
          <mxGeometry x="15" y="127.11000000000001" width="28.06" height="28.06" as="geometry" />
        </mxCell>
        <mxCell id="Q-NLPF5a2ukc4XWT1Jhk-17" value="&lt;b&gt;&lt;font style=&quot;font-size: 20px&quot;&gt;Link-Manager&lt;/font&gt;&lt;/b&gt;&lt;br style=&quot;font-size: 14px&quot;&gt;&lt;br style=&quot;font-size: 14px&quot;&gt;Some quick example text to build on the card title and make up the bulk of the card&#39;s content." style="html=1;shadow=0;dashed=0;shape=mxgraph.bootstrap.rrect;rSize=5;strokeColor=#DFDFDF;html=1;whiteSpace=wrap;fillColor=#ffffff;fontColor=#000000;verticalAlign=bottom;align=left;spacing=20;spacingBottom=50;fontSize=14;" parent="Q-NLPF5a2ukc4XWT1Jhk-29" vertex="1">
          <mxGeometry x="30" y="200.00000000000006" width="250" height="281.9062500000001" as="geometry" />
        </mxCell>
        <mxCell id="Q-NLPF5a2ukc4XWT1Jhk-18" value="LINK-MANAGER" style="html=1;shadow=0;dashed=0;shape=mxgraph.bootstrap.topButton;rSize=5;perimeter=none;whiteSpace=wrap;fillColor=#868E96;strokeColor=#DFDFDF;fontColor=#DEE2E6;resizeWidth=1;fontSize=18;" parent="Q-NLPF5a2ukc4XWT1Jhk-17" vertex="1">
          <mxGeometry width="250" height="110" relative="1" as="geometry" />
        </mxCell>
        <mxCell id="Q-NLPF5a2ukc4XWT1Jhk-19" value="Core Feature" style="text;html=1;strokeColor=#d6b656;fillColor=#fff2cc;align=center;verticalAlign=middle;whiteSpace=wrap;rounded=0;" parent="Q-NLPF5a2ukc4XWT1Jhk-17" vertex="1">
          <mxGeometry x="15" y="235.40625000000009" width="80" height="29.06250000000001" as="geometry" />
        </mxCell>
        <mxCell id="Q-NLPF5a2ukc4XWT1Jhk-20" value="&lt;b&gt;&lt;font style=&quot;font-size: 20px&quot;&gt;Movie/TV Watchlist&lt;/font&gt;&lt;/b&gt;&lt;br style=&quot;font-size: 14px&quot;&gt;&lt;br style=&quot;font-size: 14px&quot;&gt;Some quick example text to build on the card title and make up the bulk of the card&#39;s content." style="html=1;shadow=0;dashed=0;shape=mxgraph.bootstrap.rrect;rSize=5;strokeColor=#DFDFDF;html=1;whiteSpace=wrap;fillColor=#ffffff;fontColor=#000000;verticalAlign=bottom;align=left;spacing=20;spacingBottom=50;fontSize=14;" parent="Q-NLPF5a2ukc4XWT1Jhk-29" vertex="1">
          <mxGeometry x="300" y="200.00000000000006" width="250" height="281.9062500000001" as="geometry" />
        </mxCell>
        <mxCell id="Q-NLPF5a2ukc4XWT1Jhk-21" value="WATCHLIST" style="html=1;shadow=0;dashed=0;shape=mxgraph.bootstrap.topButton;rSize=5;perimeter=none;whiteSpace=wrap;fillColor=#3f926e;strokeColor=#DFDFDF;fontColor=#DEE2E6;resizeWidth=1;fontSize=18;" parent="Q-NLPF5a2ukc4XWT1Jhk-20" vertex="1">
          <mxGeometry width="250" height="110" relative="1" as="geometry" />
        </mxCell>
        <mxCell id="Q-NLPF5a2ukc4XWT1Jhk-22" value="Installed" style="text;html=1;strokeColor=#82b366;fillColor=#d5e8d4;align=center;verticalAlign=middle;whiteSpace=wrap;rounded=0;" parent="Q-NLPF5a2ukc4XWT1Jhk-20" vertex="1">
          <mxGeometry x="15" y="236.85937500000009" width="80" height="29.06250000000001" as="geometry" />
        </mxCell>
        <mxCell id="Q-NLPF5a2ukc4XWT1Jhk-23" value="&lt;span style=&quot;font-size: 20px;&quot;&gt;&lt;b&gt;Event Calendar&lt;/b&gt;&lt;/span&gt;&lt;br style=&quot;font-size: 14px&quot;&gt;&lt;br style=&quot;font-size: 14px&quot;&gt;Some quick example text to build on the card title and make up the bulk of the card&#39;s content." style="html=1;shadow=0;dashed=0;shape=mxgraph.bootstrap.rrect;rSize=5;strokeColor=#DFDFDF;html=1;whiteSpace=wrap;fillColor=#ffffff;fontColor=#000000;verticalAlign=bottom;align=left;spacing=20;spacingBottom=50;fontSize=14;" parent="Q-NLPF5a2ukc4XWT1Jhk-29" vertex="1">
          <mxGeometry x="570" y="200.00000000000006" width="250" height="281.9062500000001" as="geometry" />
        </mxCell>
        <mxCell id="Q-NLPF5a2ukc4XWT1Jhk-24" value="EVENT CALENDAR" style="html=1;shadow=0;dashed=0;shape=mxgraph.bootstrap.topButton;rSize=5;perimeter=none;whiteSpace=wrap;fillColor=#CC00CC;strokeColor=#DFDFDF;fontColor=#DEE2E6;resizeWidth=1;fontSize=18;" parent="Q-NLPF5a2ukc4XWT1Jhk-23" vertex="1">
          <mxGeometry width="250" height="110" relative="1" as="geometry" />
        </mxCell>
        <mxCell id="Q-NLPF5a2ukc4XWT1Jhk-25" value="Installed" style="text;html=1;strokeColor=#82b366;fillColor=#d5e8d4;align=center;verticalAlign=middle;whiteSpace=wrap;rounded=0;" parent="Q-NLPF5a2ukc4XWT1Jhk-23" vertex="1">
          <mxGeometry x="11" y="236.85937500000009" width="80" height="29.06250000000001" as="geometry" />
        </mxCell>
        <mxCell id="Q-NLPF5a2ukc4XWT1Jhk-26" value="&lt;span style=&quot;font-size: 20px;&quot;&gt;&lt;b&gt;Install More Modules&lt;/b&gt;&lt;/span&gt;&lt;br style=&quot;font-size: 14px&quot;&gt;&lt;br style=&quot;font-size: 14px&quot;&gt;Some quick example text to build on the card title and make up the bulk of the card&#39;s content." style="html=1;shadow=0;dashed=0;shape=mxgraph.bootstrap.rrect;rSize=5;strokeColor=#DFDFDF;html=1;whiteSpace=wrap;fillColor=#ffffff;fontColor=#000000;verticalAlign=bottom;align=left;spacing=20;spacingBottom=50;fontSize=14;" parent="Q-NLPF5a2ukc4XWT1Jhk-29" vertex="1">
          <mxGeometry x="840" y="200" width="250" height="291" as="geometry" />
        </mxCell>
        <mxCell id="Q-NLPF5a2ukc4XWT1Jhk-27" value="Click here" style="text;html=1;strokeColor=#6c8ebf;fillColor=#dae8fc;align=center;verticalAlign=middle;whiteSpace=wrap;rounded=0;" parent="Q-NLPF5a2ukc4XWT1Jhk-26" vertex="1">
          <mxGeometry x="11" y="244.5" width="229" height="30" as="geometry" />
        </mxCell>
        <mxCell id="A8pxOkjHWkT-Q6A-T4UV-8" value="" style="shape=step;whiteSpace=wrap;html=1;rounded=0;strokeColor=none;strokeWidth=2;fillColor=#0A1E43;gradientColor=none;fontFamily=Verdana;fontSize=14;fontColor=#000000;align=left;direction=south;size=0.65;" parent="Q-NLPF5a2ukc4XWT1Jhk-29" vertex="1">
          <mxGeometry x="384" y="137.64" width="10" height="7" as="geometry" />
        </mxCell>
        <mxCell id="Q-NLPF5a2ukc4XWT1Jhk-44" value="" style="html=1;verticalLabelPosition=bottom;align=center;labelBackgroundColor=#ffffff;verticalAlign=top;strokeWidth=2;strokeColor=#000000;shadow=0;dashed=0;shape=mxgraph.ios7.icons.settings;" parent="Q-NLPF5a2ukc4XWT1Jhk-28" vertex="1">
          <mxGeometry x="1491" y="126.14" width="30" height="30" as="geometry" />
        </mxCell>
        <mxCell id="Q-NLPF5a2ukc4XWT1Jhk-45" value="&lt;span style=&quot;font-size: 18px;&quot;&gt;&lt;b&gt;&lt;i&gt;&lt;u&gt;ToolBox&lt;/u&gt;&lt;/i&gt;&lt;/b&gt;&lt;/span&gt;" style="text;html=1;strokeColor=none;fillColor=none;align=center;verticalAlign=middle;whiteSpace=wrap;rounded=0;glass=0;" parent="Q-NLPF5a2ukc4XWT1Jhk-28" vertex="1">
          <mxGeometry x="47" y="118.38" width="92" height="45.53" as="geometry" />
        </mxCell>
        <mxCell id="Q-NLPF5a2ukc4XWT1Jhk-46" value="OVERVIEW" style="rounded=1;whiteSpace=wrap;html=1;shadow=1;" parent="Q-NLPF5a2ukc4XWT1Jhk-28" vertex="1">
          <mxGeometry x="155" y="118.37829268292685" width="120" height="45.528455284552855" as="geometry" />
        </mxCell>
        <mxCell id="Q-NLPF5a2ukc4XWT1Jhk-47" value="ABOUT" style="rounded=1;whiteSpace=wrap;html=1;shadow=1;glass=0;" parent="Q-NLPF5a2ukc4XWT1Jhk-28" vertex="1">
          <mxGeometry x="415" y="118.37829268292685" width="120" height="45.528455284552855" as="geometry" />
        </mxCell>
      </root>
    </mxGraphModel>
  </diagram>
</mxfile>
